<svg width="16" height="16" viewBox="0 0 16 16" fill="none" xmlns="http://www.w3.org/2000/svg">
<mask id="mask0_14_103" style="mask-type:alpha" maskUnits="userSpaceOnUse" x="0" y="0" width="16" height="16">
<rect width="16" height="16" fill="#D9D9D9"/>
</mask>
<g mask="url(#mask0_14_103)">
<path d="M6.26667 11L8.00001 9.26667L9.73334 11L10.6667 10.0667L8.93334 8.33333L10.6667 6.6L9.73334 5.66667L8.00001 7.4L6.26667 5.66667L5.33334 6.6L7.06667 8.33333L5.33334 10.0667L6.26667 11ZM4.66667 14C4.30001 14 3.98612 13.8694 3.72501 13.6083C3.46389 13.3472 3.33334 13.0333 3.33334 12.6667V4H2.66667V2.66667H6.00001V2H10V2.66667H13.3333V4H12.6667V12.6667C12.6667 13.0333 12.5361 13.3472 12.275 13.6083C12.0139 13.8694 11.7 14 11.3333 14H4.66667ZM11.3333 4H4.66667V12.6667H11.3333V4Z" fill="#D9D9D9"/>
</g>
</svg>
