<svg width="16" height="16" viewBox="0 0 16 16" fill="none" xmlns="http://www.w3.org/2000/svg">
<mask id="mask0_14_127" style="mask-type:alpha" maskUnits="userSpaceOnUse" x="0" y="0" width="16" height="16">
<rect width="16" height="16" fill="#D9D9D9"/>
</mask>
<g mask="url(#mask0_14_127)">
<path d="M3.33333 12.6667H4.26667L10.0167 6.91667L9.08333 5.98334L3.33333 11.7333V12.6667ZM12.8667 5.95L10.0333 3.15L10.9667 2.21667C11.2222 1.96111 11.5361 1.83334 11.9083 1.83334C12.2806 1.83334 12.5944 1.96111 12.85 2.21667L13.7833 3.15C14.0389 3.40556 14.1722 3.71389 14.1833 4.075C14.1944 4.43611 14.0722 4.74445 13.8167 5L12.8667 5.95ZM11.9 6.93334L4.83333 14H2V11.1667L9.06667 4.1L11.9 6.93334Z" fill="#D9D9D9"/>
</g>
</svg>
